<svg id="Layer_1" data-name="Layer 1" xmlns="http://www.w3.org/2000/svg" xmlns:xlink="http://www.w3.org/1999/xlink" viewBox="0 0 240.95 153.07"><defs><style>.cls-1{fill:none;}.cls-2{clip-path:url(#clip-path);}.cls-3{fill:#00314a;}.cls-4{fill:#f16d22;}.cls-5{fill:#fad9cb;}</style><clipPath id="clip-path"><rect class="cls-1" x="-7.09" y="-8.5" width="255.12" height="170.08"/></clipPath></defs><title>membership card digital-back</title><g class="cls-2"><rect class="cls-3" x="2.18" y="2.18" width="236.6" height="148.72" rx="10.38" ry="10.38"/><path class="cls-4" d="M228.39,4.35a8.21,8.21,0,0,1,8.2,8.2v128a8.21,8.21,0,0,1-8.2,8.2H12.55a8.21,8.21,0,0,1-8.2-8.2v-128a8.21,8.21,0,0,1,8.2-8.2H228.39m0-4.35H12.55A12.55,12.55,0,0,0,0,12.55v128a12.55,12.55,0,0,0,12.55,12.55H228.39a12.55,12.55,0,0,0,12.55-12.55v-128A12.55,12.55,0,0,0,228.39,0"/><path class="cls-5" d="M117.46,108.77a22.69,22.69,0,0,1-16.09-6.68,23,23,0,0,1-6.85-16.4v-36a5.1,5.1,0,0,1,5.09-5.09H135.3a5.1,5.1,0,0,1,5.09,5.09V85.84a22.94,22.94,0,0,1-22.79,22.93h-.15M99.61,45.6a4.13,4.13,0,0,0-4.12,4.12v36a22,22,0,0,0,6.57,15.72,21.72,21.72,0,0,0,15.4,6.4h.14a22,22,0,0,0,21.82-22V49.72a4.13,4.13,0,0,0-4.12-4.12Z"/><polygon class="cls-5" points="101.31 50.89 101.31 54.85 99.75 54.85 99.75 50.89 98.39 50.89 98.39 49.6 102.61 49.6 102.83 50.89 101.31 50.89"/><polygon class="cls-5" points="106.32 54.85 106.32 52.82 104.87 52.82 104.87 54.85 103.31 54.85 103.31 49.6 104.87 49.6 104.87 51.47 106.32 51.47 106.32 49.6 107.89 49.6 107.89 54.85 106.32 54.85"/><polygon class="cls-5" points="108.71 54.85 108.71 49.6 112.17 49.6 112.17 50.81 110.23 50.81 110.23 51.52 111.7 51.52 111.9 52.78 110.23 52.78 110.23 53.64 112.24 53.64 112.24 54.85 108.71 54.85"/><path class="cls-5" d="M116.87,54.94a2.46,2.46,0,0,1-2.61-2.7,2.51,2.51,0,0,1,2.55-2.72,3.25,3.25,0,0,1,1.43.3L118,51.17a1.82,1.82,0,0,0-1.08-.39c-.67,0-1.14.52-1.14,1.44s.56,1.44,1.24,1.44a2.33,2.33,0,0,0,1.07-.3l.2,1.24a3.18,3.18,0,0,1-1.45.33"/><path class="cls-5" d="M121.1,54.93a2,2,0,0,1-2.25-2.19V49.6h1.56v3.16c0,.58.27.88.71.88s.7-.32.7-.87V49.6h1.56v3.14a2.06,2.06,0,0,1-2.28,2.19"/><polygon class="cls-5" points="124.15 54.85 124.15 49.6 127.62 49.6 127.62 50.81 125.67 50.81 125.67 51.52 127.14 51.52 127.34 52.78 125.67 52.78 125.67 53.64 127.69 53.64 127.69 54.85 124.15 54.85"/><polygon class="cls-5" points="101.65 63 101.65 60.96 100.2 60.96 100.2 63 98.64 63 98.64 57.74 100.2 57.74 100.2 59.62 101.65 59.62 101.65 57.74 103.22 57.74 103.22 63 101.65 63"/><path class="cls-5" d="M106.4,63.1A2.73,2.73,0,1,1,109,60.36a2.49,2.49,0,0,1-2.56,2.74m0-4.27c-.64,0-1,.6-1,1.55s.36,1.55,1,1.55,1-.6,1-1.55-.36-1.55-1-1.55"/><path class="cls-5" d="M111.79,63.07a2,2,0,0,1-2.25-2.19V57.74h1.56V60.9c0,.58.27.88.71.88s.7-.32.7-.87V57.74h1.56v3.14a2.06,2.06,0,0,1-2.28,2.19"/><path class="cls-5" d="M116.62,63.06a4.86,4.86,0,0,1-2-.42l.23-1.27a4.34,4.34,0,0,0,1.79.5c.31,0,.5-.11.5-.34s-.13-.33-.85-.58c-1.07-.38-1.56-.73-1.56-1.65,0-1.08.85-1.62,1.88-1.62a3.69,3.69,0,0,1,1.74.37l-.23,1.26a3.35,3.35,0,0,0-1.49-.45c-.31,0-.47.11-.47.29s.12.31.72.51c1.2.4,1.69.82,1.69,1.68,0,1.24-.91,1.71-2,1.71"/><polygon class="cls-5" points="119.18 63 119.18 57.74 122.65 57.74 122.65 58.95 120.71 58.95 120.71 59.67 122.18 59.67 122.38 60.93 120.71 60.93 120.71 61.79 122.72 61.79 122.72 63 119.18 63"/><path class="cls-5" d="M97.81,65.55V86a19.64,19.64,0,1,0,39.28.13V65.55Zm19.64,37.16a16.74,16.74,0,0,1-6.05-1.12h12.07a16.76,16.76,0,0,1-6,1.11m8.23-2.15H109.19a16.92,16.92,0,0,1-1.78-1.16l20,0a16.62,16.62,0,0,1-1.78,1.16m3-2.2-22.58,0a17.1,17.1,0,0,1-1.42-1.46l25.42,0a17,17,0,0,1-1.42,1.45m2.25-2.5-27.08,0a16.71,16.71,0,0,1-1.13-1.75l29.34,0A16.77,16.77,0,0,1,131,95.85m1.67-2.79-30.41,0a16.65,16.65,0,0,1-.83-2.13l32.07,0a16.74,16.74,0,0,1-.83,2.13m1.59-6.71H121.17a3.72,3.72,0,0,1-.28,1h13.29a16.6,16.6,0,0,1-.41,2.5l-32.65,0a16.87,16.87,0,0,1-.4-2.5H114a3.73,3.73,0,0,1-.28-1H100.66c0-.14,0-.27,0-.41a16.8,16.8,0,1,1,33.59,0c0,.15,0,.29,0,.44"/><path class="cls-5" d="M120.22,85.91a2.78,2.78,0,0,0-5.56,0,2.82,2.82,0,0,0,0,.42h5.48a2.89,2.89,0,0,0,0-.43"/><path class="cls-5" d="M120.19,86.34h-5.48a2.75,2.75,0,0,0,.39,1h4.7a2.77,2.77,0,0,0,.39-1"/><path class="cls-5" d="M117.45,88.68a2.78,2.78,0,0,0,2.35-1.3h-4.71a2.78,2.78,0,0,0,2.35,1.31"/></g></svg>