<svg id="Layer_1" data-name="Layer 1" xmlns="http://www.w3.org/2000/svg" xmlns:xlink="http://www.w3.org/1999/xlink" viewBox="0 0 240.94 153.07"><defs><style>.cls-1{fill:none;}.cls-2{clip-path:url(#clip-path);}.cls-3{fill:#00314a;}.cls-4{fill:#f16d22;}</style><clipPath id="clip-path" transform="translate(0.16 -0.09)"><rect class="cls-1" x="-7.25" y="-8.41" width="255.12" height="170.08"/></clipPath></defs><title>membership card digital</title><g class="cls-2"><rect class="cls-3" x="2.18" y="2.17" width="236.59" height="148.72" rx="10.38" ry="10.38"/><path class="cls-4" d="M228.23,4.44a8.21,8.21,0,0,1,8.2,8.2v128a8.21,8.21,0,0,1-8.2,8.2H12.39a8.21,8.21,0,0,1-8.2-8.2v-128a8.21,8.21,0,0,1,8.2-8.2H228.23m0-4.35H12.39A12.55,12.55,0,0,0-.16,12.64v128a12.55,12.55,0,0,0,12.55,12.55H228.23a12.55,12.55,0,0,0,12.55-12.55v-128A12.55,12.55,0,0,0,228.23.09" transform="translate(0.16 -0.09)"/><rect class="cls-4" x="13.07" y="114.93" width="214.81" height="0.42"/><rect class="cls-4" x="13.07" y="110.32" width="214.81" height="0.84"/><rect class="cls-4" x="13.07" y="105.71" width="214.81" height="1.26"/><rect class="cls-4" x="13.07" y="101.1" width="214.81" height="1.68"/><rect class="cls-4" x="13.07" y="73.44" width="214.81" height="4.19"/><rect class="cls-4" x="13.07" y="78.05" width="214.81" height="3.77"/><rect class="cls-4" x="13.07" y="82.66" width="214.81" height="3.35"/><rect class="cls-4" x="13.07" y="87.27" width="214.81" height="2.93"/><rect class="cls-4" x="13.07" y="91.88" width="214.81" height="2.51"/><rect class="cls-4" x="13.07" y="96.49" width="214.81" height="2.1"/><rect class="cls-3" x="13.07" y="115.35" width="214.81" height="4.19"/><rect class="cls-3" x="13.07" y="111.16" width="214.81" height="3.77"/><rect class="cls-3" x="13.07" y="106.97" width="214.81" height="3.35"/><rect class="cls-3" x="13.07" y="102.78" width="214.81" height="2.93"/><rect class="cls-3" x="13.07" y="98.59" width="214.81" height="2.51"/><rect class="cls-3" x="13.07" y="77.63" width="214.81" height="0.42"/><rect class="cls-3" x="13.07" y="81.82" width="214.81" height="0.84"/><rect class="cls-3" x="13.07" y="86.01" width="214.81" height="1.26"/><rect class="cls-3" x="13.07" y="90.2" width="214.81" height="1.68"/><rect class="cls-3" x="13.07" y="94.4" width="214.81" height="2.1"/></g><path class="cls-4" d="M190.15,15.42V21h-2.21V15.42H186V13.59h6l.3,1.83Z" transform="translate(0.16 -0.09)"/><path class="cls-4" d="M197.23,21V18.14h-2.05V21H193V13.59h2.2v2.65h2.05V13.59h2.21V21Z" transform="translate(0.16 -0.09)"/><path class="cls-4" d="M200.6,21V13.59h4.89V15.3h-2.74v1h2.08l.28,1.77h-2.36V19.3h2.84V21Z" transform="translate(0.16 -0.09)"/><path class="cls-4" d="M213.21,21a4.44,4.44,0,0,1-1.1.12,4.22,4.22,0,0,1-1.55-.27,3.2,3.2,0,0,1-1.16-.76,3.26,3.26,0,0,1-.72-1.2,4.78,4.78,0,0,1-.25-1.58,4.48,4.48,0,0,1,.26-1.57,3.57,3.57,0,0,1,.74-1.21,3.21,3.21,0,0,1,1.14-.78,3.81,3.81,0,0,1,1.46-.27,5.12,5.12,0,0,1,1.12.11,4.12,4.12,0,0,1,.9.31l-.3,1.93a3,3,0,0,0-.7-.39,2.19,2.19,0,0,0-.83-.16,1.44,1.44,0,0,0-1.16.53,2.27,2.27,0,0,0-.45,1.51,2.56,2.56,0,0,0,.14.89,1.84,1.84,0,0,0,.38.63,1.56,1.56,0,0,0,.55.38,1.8,1.8,0,0,0,.68.13,2.56,2.56,0,0,0,.74-.11,4.82,4.82,0,0,0,.77-.31l.28,1.74A5.21,5.21,0,0,1,213.21,21Z" transform="translate(0.16 -0.09)"/><path class="cls-4" d="M221.07,19.42a2.68,2.68,0,0,1-.69,1,2.72,2.72,0,0,1-1,.56,4.34,4.34,0,0,1-1.26.18,4.29,4.29,0,0,1-1.26-.18,2.67,2.67,0,0,1-1-.55,2.57,2.57,0,0,1-.67-1,3.67,3.67,0,0,1-.24-1.4V13.59h2.2v4.46a1.43,1.43,0,0,0,.26.93.9.9,0,0,0,.74.32.87.87,0,0,0,.75-.32,1.47,1.47,0,0,0,.24-.9V13.59h2.21V18A3.51,3.51,0,0,1,221.07,19.42Z" transform="translate(0.16 -0.09)"/><path class="cls-4" d="M222.39,21V13.59h4.89V15.3h-2.74v1h2.08l.28,1.77h-2.36V19.3h2.84V21Z" transform="translate(0.16 -0.09)"/><path class="cls-4" d="M197.65,32.51V29.64H195.6v2.87h-2.2V25.09h2.2v2.65h2.05V25.09h2.21v7.42Z" transform="translate(0.16 -0.09)"/><path class="cls-4" d="M207.7,30.36a3.56,3.56,0,0,1-.73,1.22,3.25,3.25,0,0,1-1.14.79,4.05,4.05,0,0,1-3,0,3.21,3.21,0,0,1-1.13-.79,3.56,3.56,0,0,1-.73-1.21,4.5,4.5,0,0,1-.26-1.56,4.55,4.55,0,0,1,.26-1.57,3.56,3.56,0,0,1,.73-1.22,3.23,3.23,0,0,1,1.14-.79,3.8,3.8,0,0,1,1.48-.28,3.76,3.76,0,0,1,1.48.28A3.24,3.24,0,0,1,207,26a3.56,3.56,0,0,1,.73,1.21,4.89,4.89,0,0,1,0,3.13Zm-2.3-3.16a1.22,1.22,0,0,0-2.09,0,3,3,0,0,0-.37,1.6,3,3,0,0,0,.37,1.6,1.22,1.22,0,0,0,2.09,0,3,3,0,0,0,.37-1.6A3,3,0,0,0,205.4,27.2Z" transform="translate(0.16 -0.09)"/><path class="cls-4" d="M214.93,30.91a2.68,2.68,0,0,1-.69,1,2.72,2.72,0,0,1-1,.56,4.34,4.34,0,0,1-1.26.18,4.29,4.29,0,0,1-1.26-.18,2.67,2.67,0,0,1-1-.55,2.57,2.57,0,0,1-.67-1,3.67,3.67,0,0,1-.24-1.4V25.09H211v4.46a1.43,1.43,0,0,0,.26.93.9.9,0,0,0,.74.32.87.87,0,0,0,.75-.32,1.47,1.47,0,0,0,.24-.9V25.09h2.21v4.43A3.51,3.51,0,0,1,214.93,30.91Z" transform="translate(0.16 -0.09)"/><path class="cls-4" d="M221.34,31.29a2.1,2.1,0,0,1-.6.75,2.4,2.4,0,0,1-.89.42,4.36,4.36,0,0,1-1.07.13,6.66,6.66,0,0,1-1.49-.16A7.62,7.62,0,0,1,216,32l.32-1.8a8.17,8.17,0,0,0,1.31.52,4.25,4.25,0,0,0,1.21.2,1,1,0,0,0,.52-.11.39.39,0,0,0,.19-.36.49.49,0,0,0,0-.21.51.51,0,0,0-.17-.18,2.12,2.12,0,0,0-.37-.19l-.61-.23a9.61,9.61,0,0,1-1-.41,2.66,2.66,0,0,1-.69-.47,1.66,1.66,0,0,1-.4-.62,2.42,2.42,0,0,1-.13-.83,2.27,2.27,0,0,1,.21-1,2,2,0,0,1,.57-.72,2.51,2.51,0,0,1,.84-.43,3.58,3.58,0,0,1,1-.15q.4,0,.73,0a4.72,4.72,0,0,1,.63.1,4.85,4.85,0,0,1,.56.17l.54.23-.32,1.79a5.91,5.91,0,0,0-1.13-.48,3.44,3.44,0,0,0-1-.16q-.65,0-.66.41a.48.48,0,0,0,0,.19.43.43,0,0,0,.15.17,1.78,1.78,0,0,0,.31.17l.51.19a9.34,9.34,0,0,1,1.09.44,2.9,2.9,0,0,1,.74.5,1.74,1.74,0,0,1,.42.63,2.22,2.22,0,0,1,.13.8A2.54,2.54,0,0,1,221.34,31.29Z" transform="translate(0.16 -0.09)"/><path class="cls-4" d="M222.39,32.51V25.09h4.89V26.8h-2.74v1h2.08l.28,1.77h-2.36V30.8h2.84v1.71Z" transform="translate(0.16 -0.09)"/></svg>