<svg xmlns="http://www.w3.org/2000/svg" viewBox="0 0 513 216.05"><title>Asset 2</title><g id="Layer_2" data-name="Layer 2"><g id="Layer_1-2" data-name="Layer 1"><polygon points="46.52 22.93 46.52 85.93 21.69 85.93 21.69 22.93 0 22.93 0 2.33 67.25 2.33 70.64 22.93 46.52 22.93"/><polygon points="126.25 85.93 126.25 53.58 103.11 53.58 103.11 85.93 78.27 85.93 78.27 2.33 103.11 2.33 103.11 32.14 126.25 32.14 126.25 2.33 151.09 2.33 151.09 85.93 126.25 85.93"/><polygon points="164.17 85.93 164.17 2.33 219.3 2.33 219.3 21.6 188.4 21.6 188.4 32.99 211.79 32.99 214.94 52.98 188.4 52.98 188.4 66.67 220.39 66.67 220.39 85.93 164.17 85.93"/><path d="M293.93,86.27c-26,0-41.44-16.72-41.44-43C252.49,17.33,269.09,0,293.08,0c9.21,0,16.84,1.82,22.78,4.73l-3.39,21.69a28.83,28.83,0,0,0-17.2-6.18c-10.66,0-18.05,8.24-18.05,22.9C277.21,58.4,286.06,66,297,66c5.7,0,10.91-1.7,17-4.72l3.15,19.63a50.54,50.54,0,0,1-23.14,5.33"/><path d="M361.3,86.14c-20.48,0-35.74-10.3-35.74-34.89V1.33h24.84V51.61c0,9.21,4.24,14.05,11.27,14.05,7.51,0,11.14-5.09,11.14-13.81V1.33h24.84V51.25c0,24.35-16.12,34.89-36.35,34.89"/><polygon points="409.76 84.93 409.76 1.33 464.89 1.33 464.89 20.6 433.99 20.6 433.99 31.99 457.38 31.99 460.52 51.98 433.99 51.98 433.99 65.67 465.98 65.67 465.98 84.93 409.76 84.93"/><polygon points="51.98 214.47 51.98 182.13 28.84 182.13 28.84 214.47 4 214.47 4 130.88 28.84 130.88 28.84 160.68 51.98 160.68 51.98 130.88 76.81 130.88 76.81 214.47 51.98 214.47"/><path d="M127.46,216C103.11,216,87,198.6,87,172.79s16.12-43.5,40.71-43.5,40.47,17.45,40.47,43.25S152.05,216,127.46,216m.12-68c-10.18,0-15.87,9.57-15.87,24.6s5.69,24.6,15.87,24.6,15.87-9.57,15.87-24.6-5.69-24.6-15.87-24.6"/><path d="M213.12,215.68c-20.48,0-35.74-10.3-35.74-34.89V130.87h24.84v50.28c0,9.21,4.24,14.05,11.27,14.05,7.51,0,11.15-5.09,11.15-13.81V130.87h24.84v49.92c0,24.35-16.11,34.89-36.35,34.89"/><path d="M290.06,215.44a77.34,77.34,0,0,1-31.74-6.66l3.64-20.23c9.81,4.85,20.11,8,28.47,8,4.85,0,8-1.7,8-5.33S296.36,186,285,182c-17.08-6.06-24.84-11.63-24.84-26.29,0-17.2,13.45-25.81,29.93-25.81,12.12,0,19.51,2.06,27.75,5.94L314.17,156c-8.72-4.73-17.33-7.15-23.62-7.15-5,0-7.39,1.7-7.39,4.61,0,3.27,1.94,5,11.39,8.12,19,6.3,26.9,13,26.9,26.65,0,19.75-14.42,27.26-31.38,27.26"/><polygon points="330.77 214.47 330.77 130.88 385.89 130.88 385.89 150.14 355 150.14 355 161.53 378.38 161.53 381.53 181.52 355 181.52 355 195.21 386.99 195.21 386.99 214.47 330.77 214.47"/><path d="M463.88,155.48a10.69,10.69,0,0,1,10.2,7.55H513a49.22,49.22,0,0,0-98.24,0h38.92a10.7,10.7,0,0,1,10.2-7.55"/><path d="M463.88,215.44a49,49,0,0,0,22.68-5.54H441.2a49,49,0,0,0,22.68,5.54"/><path d="M425.61,197.18h76.53a49.33,49.33,0,0,0,5.6-8.61H420a49.27,49.27,0,0,0,5.6,8.61"/><path d="M474.07,169.39a10.66,10.66,0,0,1-20.39,0H414.76a49.19,49.19,0,0,0,1.58,9.64h95.08a49.11,49.11,0,0,0,1.58-9.64Z"/></g></g></svg>